<svg width="100%" height="100%" viewBox="0 0 80 80" fill="currentColor" xmlns="http://www.w3.org/2000/svg">
<mask id="mask0_6437_3517" style="mask-type:alpha" maskUnits="userSpaceOnUse" x="0" y="0" width="80" height="80">
<rect width="80" height="80" />
</mask>
<g mask="url(#mask0_6437_3517)">
<path d="M20.2137 71.6667C18.7857 71.6667 17.5597 71.1547 16.5359 70.1308C15.512 69.107 15.0001 67.8811 15.0001 66.453V33.795C15.0001 32.3559 15.512 31.1272 16.5359 30.1089C17.5597 29.0906 18.7857 28.5814 20.2137 28.5814H25.4061V21.2609C25.4061 17.2109 26.8266 13.766 29.6677 10.9264C32.5087 8.0868 35.9553 6.66699 40.0073 6.66699C44.0594 6.66699 47.5035 8.0868 50.3397 10.9264C53.1758 13.766 54.5939 17.2109 54.5939 21.2609V28.5814H59.7862C61.2143 28.5814 62.4402 29.0906 63.4641 30.1089C64.488 31.1272 64.9999 32.3559 64.9999 33.795V66.453C64.9999 67.8811 64.488 69.107 63.4641 70.1308C62.4402 71.1547 61.2143 71.6667 59.7862 71.6667H20.2137ZM20.2137 67.4787H59.7862C60.0854 67.4787 60.3312 67.3826 60.5235 67.1902C60.7158 66.9979 60.812 66.7522 60.812 66.453V33.795C60.812 33.4958 60.7158 33.2501 60.5235 33.0578C60.3312 32.8655 60.0854 32.7693 59.7862 32.7693H20.2137C19.9146 32.7693 19.6688 32.8655 19.4765 33.0578C19.2842 33.2501 19.188 33.4958 19.188 33.795V66.453C19.188 66.7522 19.2842 66.9979 19.4765 67.1902C19.6688 67.3826 19.9146 67.4787 20.2137 67.4787ZM40.0093 55.8333C41.5857 55.8333 42.9298 55.2825 44.0417 54.181C45.1534 53.0794 45.7093 51.7499 45.7093 50.1924C45.7093 48.6696 45.1503 47.326 44.0322 46.1614C42.9142 44.9969 41.567 44.4147 39.9907 44.4147C38.4143 44.4147 37.0702 44.9969 35.9584 46.1614C34.8466 47.326 34.2907 48.6789 34.2907 50.2202C34.2907 51.7614 34.8497 53.0823 35.9677 54.1827C37.0857 55.2831 38.4329 55.8333 40.0093 55.8333ZM29.594 28.5814H50.406V21.2609C50.406 18.3704 49.3951 15.9134 47.3732 13.89C45.3513 11.8666 42.8962 10.8549 40.0078 10.8549C37.1194 10.8549 34.6617 11.8666 32.6346 13.89C30.6075 15.9134 29.594 18.3704 29.594 21.2609V28.5814Z" />
</g>
</svg>
